<svg width="2045" height="240" viewBox="0 0 2045 240" fill="none" xmlns="http://www.w3.org/2000/svg">
<g clip-path="url(#clip0_1_26)">
<path d="M308.001 186.864C298.812 186.864 290.161 185.193 282.046 181.852C273.931 178.511 266.771 173.857 260.566 167.89C254.48 161.804 249.647 154.704 246.067 146.589C242.606 138.355 240.876 129.465 240.876 119.918C240.876 110.371 242.606 101.541 246.067 93.426C249.647 85.192 254.48 78.0917 260.566 72.125C266.771 66.039 273.931 61.3253 282.046 57.984C290.161 54.6427 298.812 52.972 308.001 52.972C317.786 52.972 326.796 54.7023 335.03 58.163C343.383 61.6237 350.364 66.4567 355.973 72.662L342.369 86.087C339.624 82.9843 336.462 80.359 332.882 78.211C329.421 76.063 325.603 74.452 321.426 73.378C317.249 72.1847 312.774 71.588 308.001 71.588C301.676 71.588 295.65 72.7217 289.922 74.989C284.194 77.2563 279.122 80.538 274.707 84.834C270.411 89.0107 267.01 94.0823 264.504 100.049C261.998 105.896 260.745 112.519 260.745 119.918C260.745 127.317 261.998 133.999 264.504 139.966C267.129 145.813 270.59 150.885 274.886 155.181C279.301 159.358 284.373 162.58 290.101 164.847C295.829 167.114 301.855 168.248 308.18 168.248C314.027 168.248 319.457 167.413 324.469 165.742C329.6 164.071 334.075 161.685 337.894 158.582C341.713 155.479 344.815 151.72 347.202 147.305C349.589 142.77 351.08 137.699 351.677 132.09H307.822V114.727H370.114C370.353 116.159 370.591 117.83 370.83 119.739C371.069 121.529 371.188 123.259 371.188 124.93V125.109C371.188 134.298 369.577 142.711 366.355 150.348C363.252 157.985 358.897 164.549 353.288 170.038C347.679 175.408 340.997 179.585 333.24 182.568C325.603 185.432 317.19 186.864 308.001 186.864ZM430.118 186.864C420.691 186.864 412.397 184.716 405.237 180.42C398.077 176.124 392.468 170.336 388.411 163.057C384.354 155.658 382.325 147.424 382.325 138.355C382.325 129.286 384.354 121.111 388.411 113.832C392.468 106.433 398.077 100.586 405.237 96.29C412.397 91.994 420.691 89.846 430.118 89.846C439.426 89.846 447.66 92.0537 454.82 96.469C461.98 100.765 467.589 106.553 471.646 113.832C475.703 121.111 477.732 129.286 477.732 138.355C477.732 147.424 475.703 155.658 471.646 163.057C467.589 170.336 461.98 176.124 454.82 180.42C447.66 184.716 439.426 186.864 430.118 186.864ZM430.118 169.143C435.13 169.143 439.784 167.95 444.08 165.563C448.376 163.057 451.837 159.537 454.462 155.002C457.207 150.348 458.579 144.799 458.579 138.355C458.579 131.911 457.207 126.422 454.462 121.887C451.837 117.233 448.376 113.713 444.08 111.326C439.784 108.82 435.13 107.567 430.118 107.567C425.106 107.567 420.392 108.82 415.977 111.326C411.681 113.713 408.161 117.233 405.416 121.887C402.791 126.422 401.478 131.911 401.478 138.355C401.478 144.799 402.791 150.348 405.416 155.002C408.161 159.537 411.741 163.057 416.156 165.563C420.571 167.95 425.225 169.143 430.118 169.143ZM532.603 186.864C523.175 186.864 514.882 184.716 507.722 180.42C500.562 176.124 494.953 170.336 490.896 163.057C486.838 155.658 484.81 147.424 484.81 138.355C484.81 129.286 486.838 121.111 490.896 113.832C494.953 106.433 500.562 100.586 507.722 96.29C514.882 91.994 523.175 89.846 532.603 89.846C541.911 89.846 550.145 92.0537 557.305 96.469C564.465 100.765 570.073 106.553 574.131 113.832C578.188 121.111 580.217 129.286 580.217 138.355C580.217 147.424 578.188 155.658 574.131 163.057C570.073 170.336 564.465 176.124 557.305 180.42C550.145 184.716 541.911 186.864 532.603 186.864ZM532.603 169.143C537.615 169.143 542.269 167.95 546.565 165.563C550.861 163.057 554.321 159.537 556.947 155.002C559.691 150.348 561.064 144.799 561.064 138.355C561.064 131.911 559.691 126.422 556.947 121.887C554.321 117.233 550.861 113.713 546.565 111.326C542.269 108.82 537.615 107.567 532.603 107.567C527.591 107.567 522.877 108.82 518.462 111.326C514.166 113.713 510.645 117.233 507.901 121.887C505.275 126.422 503.963 131.911 503.963 138.355C503.963 144.799 505.275 150.348 507.901 155.002C510.645 159.537 514.225 163.057 518.641 165.563C523.056 167.95 527.71 169.143 532.603 169.143ZM633.297 225.528C625.302 225.528 618.38 224.215 612.533 221.59C606.805 219.084 602.151 215.802 598.571 211.745C594.991 207.807 592.425 203.75 590.874 199.573L608.774 192.055C610.683 196.828 613.726 200.707 617.903 203.69C622.199 206.793 627.33 208.344 633.297 208.344C641.77 208.344 648.393 205.838 653.166 200.826C657.939 195.814 660.326 188.714 660.326 179.525V170.754H659.252C656.388 174.931 652.45 178.332 647.438 180.957C642.426 183.582 636.638 184.895 630.075 184.895C622.318 184.895 615.158 182.926 608.595 178.988C602.151 175.05 596.96 169.561 593.022 162.52C589.203 155.36 587.294 147.007 587.294 137.46C587.294 127.794 589.203 119.441 593.022 112.4C596.96 105.24 602.151 99.691 608.595 95.753C615.158 91.815 622.318 89.846 630.075 89.846C636.638 89.846 642.426 91.1587 647.438 93.784C652.45 96.29 656.388 99.7507 659.252 104.166H660.326V92.71H678.763V179.167C678.763 189.072 676.794 197.485 672.856 204.406C669.037 211.327 663.727 216.578 656.925 220.158C650.123 223.738 642.247 225.528 633.297 225.528ZM633.476 167.353C638.249 167.353 642.665 166.219 646.722 163.952C650.899 161.565 654.18 158.164 656.567 153.749C659.073 149.214 660.326 143.785 660.326 137.46C660.326 130.777 659.073 125.228 656.567 120.813C654.18 116.398 650.899 113.056 646.722 110.789C642.665 108.522 638.249 107.388 633.476 107.388C628.703 107.388 624.228 108.522 620.051 110.789C615.994 113.056 612.712 116.457 610.206 120.992C607.7 125.407 606.447 130.897 606.447 137.46C606.447 143.904 607.7 149.393 610.206 153.928C612.712 158.343 615.994 161.685 620.051 163.952C624.228 166.219 628.703 167.353 633.476 167.353ZM693.87 184V55.836H713.202V184H693.87ZM770.196 186.864C761.246 186.864 753.25 184.776 746.21 180.599C739.169 176.422 733.62 170.694 729.563 163.415C725.625 156.136 723.656 147.842 723.656 138.534C723.656 129.823 725.565 121.768 729.384 114.369C733.202 106.97 738.513 101.063 745.315 96.648C752.236 92.1133 760.172 89.846 769.122 89.846C778.549 89.846 786.544 91.8747 793.108 95.932C799.79 99.9893 804.862 105.538 808.323 112.579C811.783 119.62 813.514 127.555 813.514 136.386C813.514 137.699 813.454 138.892 813.335 139.966C813.335 141.04 813.275 141.875 813.156 142.472H742.63C743.107 147.484 744.36 151.84 746.389 155.539C749.014 160.193 752.475 163.713 756.771 166.1C761.067 168.487 765.721 169.68 770.733 169.68C776.819 169.68 781.89 168.308 785.948 165.563C790.124 162.699 793.406 159.179 795.793 155.002L811.724 162.699C807.786 169.859 802.416 175.706 795.614 180.241C788.812 184.656 780.339 186.864 770.196 186.864ZM743.704 127.973H794.361C794.241 125.706 793.645 123.319 792.571 120.813C791.497 118.188 789.945 115.801 787.917 113.653C785.888 111.505 783.322 109.775 780.22 108.462C777.117 107.03 773.477 106.314 769.301 106.314C764.05 106.314 759.396 107.686 755.339 110.431C751.281 113.056 748.119 116.756 745.852 121.529C744.897 123.558 744.181 125.706 743.704 127.973ZM865.185 184V55.836H891.677L929.088 153.391H930.162L967.752 55.836H994.244V184H974.912V111.505L975.986 88.772H974.912L937.501 184H921.928L884.517 88.772H883.443L884.517 111.505V184H865.185ZM1043.26 186.864C1036.58 186.864 1030.73 185.551 1025.72 182.926C1020.71 180.301 1016.71 176.721 1013.73 172.186C1010.87 167.532 1009.43 162.222 1009.43 156.255C1009.43 149.692 1011.1 144.143 1014.45 139.608C1017.91 135.073 1022.44 131.613 1028.05 129.226C1033.78 126.839 1040.1 125.646 1047.02 125.646C1050.96 125.646 1054.54 125.944 1057.76 126.541C1060.99 127.018 1063.85 127.615 1066.36 128.331C1068.86 129.047 1070.83 129.823 1072.26 130.658V125.825C1072.26 119.858 1070.11 115.085 1065.82 111.505C1061.52 107.925 1055.97 106.135 1049.17 106.135C1044.52 106.135 1040.1 107.209 1035.93 109.357C1031.75 111.386 1028.35 114.19 1025.72 117.77L1012.66 107.567C1015.28 103.868 1018.44 100.705 1022.14 98.08C1025.96 95.4547 1030.2 93.426 1034.85 91.994C1039.51 90.562 1044.46 89.846 1049.71 89.846C1062.84 89.846 1072.98 93.1277 1080.14 99.691C1087.3 106.135 1090.88 115.204 1090.88 126.899V184H1072.26V172.723H1071.19C1069.52 175.11 1067.31 177.377 1064.57 179.525C1061.94 181.673 1058.84 183.403 1055.26 184.716C1051.68 186.148 1047.68 186.864 1043.26 186.864ZM1046.67 171.112C1051.68 171.112 1056.09 169.919 1059.91 167.532C1063.73 165.145 1066.71 162.043 1068.86 158.224C1071.13 154.286 1072.26 150.05 1072.26 145.515C1069.52 143.964 1066.3 142.711 1062.6 141.756C1058.9 140.682 1054.9 140.145 1050.6 140.145C1042.85 140.145 1037.3 141.696 1033.96 144.799C1030.62 147.902 1028.94 151.78 1028.94 156.434C1028.94 160.73 1030.5 164.25 1033.6 166.995C1036.82 169.74 1041.18 171.112 1046.67 171.112ZM1106.44 222.664V92.71H1124.7V105.061H1125.77C1127.44 102.436 1129.65 99.9893 1132.39 97.722C1135.26 95.3353 1138.6 93.426 1142.42 91.994C1146.24 90.562 1150.47 89.846 1155.13 89.846C1163.48 89.846 1170.94 91.9343 1177.5 96.111C1184.06 100.288 1189.25 106.016 1193.07 113.295C1197.01 120.574 1198.98 128.928 1198.98 138.355C1198.98 147.782 1197.01 156.136 1193.07 163.415C1189.25 170.694 1184.06 176.422 1177.5 180.599C1170.94 184.776 1163.48 186.864 1155.13 186.864C1148.2 186.864 1142.18 185.313 1137.05 182.21C1131.92 179.107 1128.16 175.647 1125.77 171.828H1124.7L1125.77 184.537V222.664H1106.44ZM1152.26 169.143C1157.03 169.143 1161.51 167.89 1165.69 165.384C1169.98 162.878 1173.38 159.298 1175.89 154.644C1178.51 149.99 1179.83 144.56 1179.83 138.355C1179.83 132.03 1178.51 126.601 1175.89 122.066C1173.38 117.412 1169.98 113.832 1165.69 111.326C1161.51 108.82 1157.03 107.567 1152.26 107.567C1147.49 107.567 1143.01 108.82 1138.84 111.326C1134.66 113.832 1131.26 117.412 1128.63 122.066C1126.01 126.601 1124.7 132.03 1124.7 138.355C1124.7 144.68 1126.01 150.169 1128.63 154.823C1131.26 159.358 1134.66 162.878 1138.84 165.384C1143.01 167.89 1147.49 169.143 1152.26 169.143ZM1244.31 186.864C1237.03 186.864 1230.71 185.79 1225.34 183.642C1219.97 181.375 1215.55 178.391 1212.09 174.692C1208.63 170.873 1206.07 166.756 1204.4 162.341L1221.76 154.823C1223.91 159.716 1226.95 163.475 1230.89 166.1C1234.95 168.606 1239.6 169.859 1244.85 169.859C1249.62 169.859 1253.74 169.024 1257.2 167.353C1260.66 165.563 1262.39 162.699 1262.39 158.761C1262.39 156.255 1261.56 154.226 1259.89 152.675C1258.34 151.004 1256.19 149.632 1253.44 148.558C1250.82 147.484 1247.77 146.529 1244.31 145.694L1233.39 143.188C1229.1 142.114 1224.98 140.443 1221.04 138.176C1217.22 135.789 1214.12 132.806 1211.74 129.226C1209.35 125.646 1208.16 121.41 1208.16 116.517C1208.16 111.028 1209.71 106.314 1212.81 102.376C1216.03 98.3187 1220.33 95.216 1225.7 93.068C1231.07 90.92 1236.86 89.846 1243.06 89.846C1248.79 89.846 1253.98 90.6217 1258.63 92.173C1263.41 93.605 1267.52 95.8127 1270.98 98.796C1274.56 101.66 1277.37 105.24 1279.4 109.536L1262.75 117.054C1260.72 112.997 1257.98 110.192 1254.52 108.641C1251.06 106.97 1247.3 106.135 1243.24 106.135C1238.7 106.135 1234.89 107.09 1231.78 108.999C1228.8 110.789 1227.31 113.176 1227.31 116.159C1227.31 119.262 1228.62 121.708 1231.25 123.498C1233.99 125.288 1237.33 126.72 1241.27 127.794L1254.52 131.016C1263.59 133.283 1270.39 136.744 1274.92 141.398C1279.46 145.933 1281.72 151.482 1281.72 158.045C1281.72 163.892 1280.05 169.024 1276.71 173.439C1273.37 177.735 1268.84 181.076 1263.11 183.463C1257.5 185.73 1251.23 186.864 1244.31 186.864ZM1332.51 184V55.836H1376.54C1384.3 55.836 1391.34 57.5067 1397.66 60.848C1403.99 64.07 1409 68.6643 1412.7 74.631C1416.52 80.4783 1418.43 87.2803 1418.43 95.037C1418.43 102.674 1416.52 109.476 1412.7 115.443C1409 121.41 1403.99 126.064 1397.66 129.405C1391.34 132.627 1384.3 134.238 1376.54 134.238H1352.2V184H1332.51ZM1352.2 115.622H1377.08C1381.73 115.622 1385.67 114.667 1388.89 112.758C1392.11 110.729 1394.56 108.164 1396.23 105.061C1398.02 101.839 1398.92 98.4977 1398.92 95.037C1398.92 91.5763 1398.02 88.2947 1396.23 85.192C1394.56 82.0893 1392.11 79.5237 1388.89 77.495C1385.67 75.4663 1381.73 74.452 1377.08 74.452H1352.2V115.622ZM1429.67 184V55.836H1449V184H1429.67ZM1495.08 186.864C1488.4 186.864 1482.55 185.551 1477.54 182.926C1472.52 180.301 1468.53 176.721 1465.54 172.186C1462.68 167.532 1461.25 162.222 1461.25 156.255C1461.25 149.692 1462.92 144.143 1466.26 139.608C1469.72 135.073 1474.26 131.613 1479.86 129.226C1485.59 126.839 1491.92 125.646 1498.84 125.646C1502.78 125.646 1506.36 125.944 1509.58 126.541C1512.8 127.018 1515.66 127.615 1518.17 128.331C1520.68 129.047 1522.64 129.823 1524.08 130.658V125.825C1524.08 119.858 1521.93 115.085 1517.63 111.505C1513.34 107.925 1507.79 106.135 1500.99 106.135C1496.33 106.135 1491.92 107.209 1487.74 109.357C1483.56 111.386 1480.16 114.19 1477.54 117.77L1464.47 107.567C1467.09 103.868 1470.26 100.705 1473.96 98.08C1477.78 95.4547 1482.01 93.426 1486.67 91.994C1491.32 90.562 1496.27 89.846 1501.52 89.846C1514.65 89.846 1524.79 93.1277 1531.95 99.691C1539.11 106.135 1542.69 115.204 1542.69 126.899V184H1524.08V172.723H1523C1521.33 175.11 1519.12 177.377 1516.38 179.525C1513.75 181.673 1510.65 183.403 1507.07 184.716C1503.49 186.148 1499.49 186.864 1495.08 186.864ZM1498.48 171.112C1503.49 171.112 1507.91 169.919 1511.73 167.532C1515.54 165.145 1518.53 162.043 1520.68 158.224C1522.94 154.286 1524.08 150.05 1524.08 145.515C1521.33 143.964 1518.11 142.711 1514.41 141.756C1510.71 140.682 1506.71 140.145 1502.42 140.145C1494.66 140.145 1489.11 141.696 1485.77 144.799C1482.43 147.902 1480.76 151.78 1480.76 156.434C1480.76 160.73 1482.31 164.25 1485.41 166.995C1488.63 169.74 1492.99 171.112 1498.48 171.112ZM1549.01 109.536V92.71H1565.12V66.934H1584.27V92.71H1623.47V85.192C1623.47 78.9867 1624.78 73.6167 1627.41 69.082C1630.03 64.428 1633.73 60.848 1638.51 58.342C1643.28 55.7167 1648.89 54.404 1655.33 54.404C1657.6 54.404 1659.87 54.583 1662.13 54.941C1664.52 55.299 1666.79 55.836 1668.94 56.552V75.347C1666.79 74.3923 1664.7 73.6763 1662.67 73.199C1660.64 72.7217 1658.73 72.483 1656.94 72.483C1652.65 72.483 1649.19 73.7957 1646.56 76.421C1644.06 78.927 1642.8 82.4473 1642.8 86.982V92.71H1665.71V109.536H1642.8V184H1623.47V109.536H1584.27V153.391C1584.27 158.164 1585.22 161.685 1587.13 163.952C1589.16 166.219 1592.21 167.353 1596.26 167.353C1598.17 167.353 1599.96 167.114 1601.63 166.637C1603.3 166.04 1605.15 165.145 1607.18 163.952V182.747C1604.91 183.582 1602.59 184.239 1600.2 184.716C1597.93 185.193 1595.49 185.432 1592.86 185.432C1584.27 185.432 1577.47 182.926 1572.46 177.914C1567.56 172.902 1565.12 166.1 1565.12 157.508V109.536H1549.01ZM1714.01 186.864C1704.58 186.864 1696.29 184.716 1689.13 180.42C1681.97 176.124 1676.36 170.336 1672.3 163.057C1668.25 155.658 1666.22 147.424 1666.22 138.355C1666.22 129.286 1668.25 121.111 1672.3 113.832C1676.36 106.433 1681.97 100.586 1689.13 96.29C1696.29 91.994 1704.58 89.846 1714.01 89.846C1723.32 89.846 1731.55 92.0537 1738.71 96.469C1745.87 100.765 1751.48 106.553 1755.54 113.832C1759.59 121.111 1761.62 129.286 1761.62 138.355C1761.62 147.424 1759.59 155.658 1755.54 163.057C1751.48 170.336 1745.87 176.124 1738.71 180.42C1731.55 184.716 1723.32 186.864 1714.01 186.864ZM1714.01 169.143C1719.02 169.143 1723.68 167.95 1727.97 165.563C1732.27 163.057 1735.73 159.537 1738.35 155.002C1741.1 150.348 1742.47 144.799 1742.47 138.355C1742.47 131.911 1741.1 126.422 1738.35 121.887C1735.73 117.233 1732.27 113.713 1727.97 111.326C1723.68 108.82 1719.02 107.567 1714.01 107.567C1709 107.567 1704.28 108.82 1699.87 111.326C1695.57 113.713 1692.05 117.233 1689.31 121.887C1686.68 126.422 1685.37 131.911 1685.37 138.355C1685.37 144.799 1686.68 150.348 1689.31 155.002C1692.05 159.537 1695.63 163.057 1700.05 165.563C1704.46 167.95 1709.12 169.143 1714.01 169.143ZM1773.53 184V92.71H1791.79V106.135H1792.87C1794.3 103.032 1796.33 100.288 1798.95 97.901C1801.7 95.5143 1804.8 93.605 1808.26 92.173C1811.84 90.741 1815.54 90.025 1819.36 90.025C1821.86 90.025 1823.95 90.204 1825.62 90.562C1827.41 90.8007 1829.02 91.2183 1830.46 91.815V111.863C1828.19 110.908 1825.86 110.133 1823.48 109.536C1821.21 108.939 1818.82 108.641 1816.32 108.641C1811.78 108.641 1807.72 109.894 1804.14 112.4C1800.68 114.787 1797.94 118.009 1795.91 122.066C1793.88 126.123 1792.87 130.658 1792.87 135.67V184H1773.53ZM1838.79 184V92.71H1857.04V105.24H1858.12C1859.91 102.257 1862.23 99.6313 1865.1 97.364C1867.96 95.0967 1871.18 93.3067 1874.76 91.994C1878.46 90.562 1882.28 89.846 1886.22 89.846C1893.02 89.846 1898.81 91.457 1903.58 94.679C1908.36 97.901 1911.76 101.958 1913.79 106.851C1916.77 102.078 1920.83 98.08 1925.96 94.858C1931.09 91.5167 1937.35 89.846 1944.75 89.846C1955.49 89.846 1963.49 93.1277 1968.74 99.691C1973.99 106.135 1976.62 114.727 1976.62 125.467V184H1957.46V128.689C1957.46 121.29 1955.85 115.92 1952.63 112.579C1949.53 109.238 1945.17 107.567 1939.56 107.567C1935.15 107.567 1931.27 108.82 1927.93 111.326C1924.59 113.713 1921.96 116.994 1920.05 121.171C1918.26 125.348 1917.37 130.002 1917.37 135.133V184H1898.21V128.689C1898.21 121.41 1896.6 116.099 1893.38 112.758C1890.16 109.297 1885.62 107.567 1879.78 107.567C1875.6 107.567 1871.84 108.82 1868.5 111.326C1865.28 113.832 1862.71 117.173 1860.8 121.35C1859.01 125.527 1858.12 130.181 1858.12 135.312V184H1838.79Z" fill="#202124"/>
<path d="M130.93 109.414L152.897 92.6795L162.651 71.6335C156.157 59.2371 144.943 49.692 131.46 45.4585L111.188 59.1501L99.6865 83.2388C103.425 78.7096 109.032 75.8583 115.334 75.8583C126.653 75.8583 135.702 85.0122 135.702 96.2263C135.694 101.242 133.886 105.867 130.93 109.414Z" fill="#4285F4"/>
<path d="M115.322 43C98.8915 43 84.3304 50.3805 74.4897 62.0901L83.861 77.4421L99.6826 83.2491C99.7782 83.1535 131.465 45.4688 131.465 45.4688C126.345 43.8867 120.929 43 115.322 43Z" fill="#1A73E8"/>
<path d="M130.928 109.416C127.19 113.841 121.626 116.701 115.323 116.701C104.005 116.701 94.9554 107.547 94.9554 96.3331C94.9554 91.5085 96.92 86.6925 99.6758 83.25L76.3346 99.9408L67.311 121.813C72.9181 134.009 82.1677 143.85 91.7128 156.15L116.732 136.243L130.928 109.416Z" fill="#FBBC04"/>
<path d="M168.754 96.3334C168.754 87.3795 166.494 79.0167 162.651 71.6362L91.7061 156.151C94.853 160.184 97.9043 164.513 100.956 169.234C111.787 185.968 108.536 196 115.43 196C122.419 196 119.368 185.968 130.191 169.234C147.994 141.39 168.754 128.698 168.754 96.3334Z" fill="#34A853"/>
<path d="M99.6849 83.2412L74.4921 62.0908C66.7204 71.3403 62 83.3455 62 96.333C62 106.365 63.9647 114.536 67.3115 121.813L99.6849 83.2412Z" fill="#EA4335"/>
</g>
<defs>
<clipPath id="clip0_1_26">
<rect width="2045" height="240" fill="white"/>
</clipPath>
</defs>
</svg>
